<svg width="81" height="82" viewBox="0 0 81 82" fill="none" xmlns="http://www.w3.org/2000/svg">
<path d="M73.4062 12.8125H7.59375C6.19365 12.8125 5.0625 13.9576 5.0625 15.375V66.625C5.0625 68.0424 6.19365 69.1875 7.59375 69.1875H73.4062C74.8064 69.1875 75.9375 68.0424 75.9375 66.625V15.375C75.9375 13.9576 74.8064 12.8125 73.4062 12.8125ZM70.2422 21.6852V63.4219H10.7578V21.6852L8.57461 19.9635L11.6833 15.9195L15.0688 18.5861H65.9391L69.3246 15.9195L72.4333 19.9635L70.2422 21.6852ZM65.9391 18.5781L40.5 38.5977L15.0609 18.5781L11.6754 15.9115L8.5667 19.9555L10.7499 21.6771L37.771 42.9459C38.5481 43.5571 39.5041 43.8888 40.4881 43.8888C41.4722 43.8888 42.4282 43.5571 43.2053 42.9459L70.2422 21.6852L72.4254 19.9635L69.3167 15.9195L65.9391 18.5781Z" fill="black"/>
</svg>
