<svg width="75" height="78" viewBox="0 0 75 78" fill="none" xmlns="http://www.w3.org/2000/svg">
<path d="M37.5 0C58.1766 0 75 14.196 75 31.6485C75 38.6344 72.3984 44.9231 66.9609 51.1193C59.0953 60.5378 41.5031 72.0086 37.5 73.7636C33.6094 75.4699 34.0594 72.8033 34.2375 71.7503L34.2516 71.6625L34.7859 68.3231C34.9125 67.3286 35.0437 65.7832 34.6641 64.7985C34.2422 63.7114 32.5828 63.1459 31.3641 62.8729C13.3406 60.4013 0 47.2924 0 31.6485C0 14.196 16.8281 0 37.5 0ZM23.5406 37.4692H16.3922V23.9753C16.3922 23.7744 16.3158 23.5817 16.1797 23.4392C16.0435 23.2967 15.8588 23.216 15.6656 23.2148H13.0312C12.9352 23.2148 12.8401 23.2344 12.7514 23.2726C12.6627 23.3109 12.5821 23.3669 12.5142 23.4375C12.4463 23.5081 12.3924 23.592 12.3557 23.6842C12.3189 23.7765 12.3 23.8754 12.3 23.9753V40.9695C12.3 41.1694 12.3797 41.3595 12.5062 41.4911V41.496L12.5156 41.5057L12.525 41.5155C12.6609 41.6515 12.8426 41.7267 13.0312 41.7251H23.5406C23.9437 41.7251 24.2672 41.3839 24.2672 40.9646V38.2346C24.2678 38.1348 24.2495 38.0357 24.2133 37.9432C24.1771 37.8507 24.1238 37.7665 24.0563 37.6954C23.9889 37.6244 23.9086 37.5678 23.8201 37.529C23.7316 37.4902 23.6367 37.4699 23.5406 37.4692V37.4692ZM27.2484 23.2148C27.0545 23.2148 26.8685 23.2949 26.7314 23.4375C26.5942 23.5801 26.5172 23.7736 26.5172 23.9753V40.9695C26.5172 41.3888 26.8453 41.7251 27.2484 41.7251H29.8828C30.2859 41.7251 30.6094 41.3839 30.6094 40.9695V23.9753C30.6094 23.7744 30.533 23.5817 30.3969 23.4392C30.2607 23.2967 30.0759 23.216 29.8828 23.2148H27.2484ZM45.3562 23.2148C45.1623 23.2148 44.9763 23.2949 44.8392 23.4375C44.702 23.5801 44.625 23.7736 44.625 23.9753V34.0665L37.1391 23.556C37.1201 23.5304 37.0998 23.506 37.0781 23.4829V23.478C37.0633 23.4609 37.0477 23.4447 37.0313 23.4293L37.0172 23.4146C37.0011 23.3986 36.9839 23.384 36.9656 23.3708H36.9609L36.9375 23.3512L36.9234 23.3415C36.9161 23.3358 36.9083 23.3309 36.9 23.3269L36.8625 23.3025H36.8531L36.8391 23.2927L36.7922 23.2733L36.7734 23.2635C36.7581 23.2577 36.7424 23.2528 36.7266 23.2489H36.7172L36.7031 23.244L36.6609 23.2342H36.6328L36.6187 23.2294H36.6L36.5906 23.2245H33.9C33.7069 23.2245 33.5216 23.3039 33.3846 23.4455C33.2476 23.5871 33.17 23.7793 33.1688 23.9801V40.9744C33.1688 41.3936 33.4969 41.73 33.9 41.73H36.525C36.9328 41.73 37.2609 41.3887 37.2609 40.9744V30.8831L44.7609 41.4131C44.8108 41.4857 44.8727 41.5484 44.9438 41.5984L44.9484 41.6033L44.9953 41.6325L45.0141 41.6422C45.0261 41.6496 45.0387 41.6561 45.0516 41.6617L45.0844 41.6764L45.1078 41.6861C45.1233 41.6915 45.1389 41.6964 45.1547 41.7007H45.1687C45.2298 41.719 45.2928 41.7288 45.3562 41.73H47.9813C48.3891 41.73 48.7172 41.3887 48.7172 40.9744V23.9753C48.7172 23.7736 48.6401 23.5801 48.503 23.4375C48.3659 23.2949 48.1799 23.2148 47.9859 23.2148H45.3562V23.2148ZM63.2391 26.7101V23.9801C63.2397 23.8803 63.2214 23.7812 63.1852 23.6887C63.149 23.5962 63.0957 23.512 63.0282 23.4409C62.9607 23.3699 62.8805 23.3133 62.792 23.2745C62.7035 23.2357 62.6085 23.2154 62.5125 23.2148H52.0031C51.814 23.215 51.6323 23.2919 51.4969 23.4293H51.4922L51.4875 23.439L51.4781 23.4536C51.3472 23.5933 51.2733 23.7802 51.2719 23.9753V40.9695C51.2719 41.1694 51.3516 41.3595 51.4781 41.4911L51.4875 41.5057L51.4969 41.5155C51.6331 41.651 51.8146 41.7262 52.0031 41.7251H62.5125C62.9156 41.7251 63.2391 41.3839 63.2391 40.9646V38.2346C63.2397 38.1348 63.2214 38.0357 63.1852 37.9432C63.149 37.8507 63.0957 37.7665 63.0282 37.6954C62.9607 37.6244 62.8805 37.5678 62.792 37.529C62.7035 37.4902 62.6085 37.4699 62.5125 37.4692H55.3594V34.5979H62.5078C62.9109 34.5979 63.2344 34.2566 63.2344 33.8374V31.1074C63.235 31.0075 63.2167 30.9085 63.1805 30.816C63.1443 30.7235 63.091 30.6393 63.0235 30.5682C62.956 30.4971 62.8758 30.4406 62.7873 30.4018C62.6988 30.3629 62.6038 30.3426 62.5078 30.342H55.3594V27.4706H62.5078C62.9109 27.4706 63.2344 27.1294 63.2344 26.7101H63.2391Z" fill="black"/>
</svg>
